<?xml version="1.0" standalone="no"?>
<!DOCTYPE svg PUBLIC "-//W3C//DTD SVG 20010904//EN"
 "http://www.w3.org/TR/2001/REC-SVG-20010904/DTD/svg10.dtd">
<svg version="1.0" xmlns="http://www.w3.org/2000/svg"
 width="512.000000pt" height="512.000000pt" viewBox="0 0 512.000000 512.000000"
 preserveAspectRatio="xMidYMid meet">
<metadata>
Created by potrace 1.11, written by Peter Selinger 2001-2013
</metadata>
<g transform="translate(0.000000,512.000000) scale(0.100000,-0.100000)"
fill="#000000" stroke="none">
<path d="M0 2560 l0 -2560 2560 0 2560 0 0 2560 0 2560 -2560 0 -2560 0 0
-2560z m2085 110 l0 -965 -102 -3 -102 -3 -3 -102 -3 -102 -540 0 -540 0 -3
102 -3 102 -102 3 -102 3 0 325 0 325 220 0 220 0 3 -207 2 -208 305 0 305 0
0 625 0 625 -210 0 -210 0 0 218 c0 120 3 222 7 225 3 4 198 6 432 5 l426 -3
0 -965z m2175 860 l5 -105 103 -3 102 -3 0 -859 0 -860 -105 0 -105 0 0 -105
0 -105 -752 2 -753 3 -3 1060 c-1 583 0 1066 3 1073 3 10 159 12 752 10 l748
-3 5 -105z"/>
<path d="M3200 2565 l0 -625 415 0 415 0 -2 623 -3 622 -412 3 -413 2 0 -625z"/>
</g>
</svg>
